<svg width="1440" height="965" viewBox="0 0 1440 965" fill="none" xmlns="http://www.w3.org/2000/svg">
<path d="M0 138H1440V917H0V138Z" fill="#269546"/>
<path d="M1309.08 793.364C1166.82 851.002 977.67 801.757 868.495 804.97C760.672 808.142 727.594 919.178 727.594 919.178L711.85 918.438C711.85 918.438 731.353 810.618 880.162 735.698C955.182 697.934 1015.04 671.935 1091.32 635.64C1196.13 585.783 1305.55 530.947 1365.38 388.484C1362.65 394.526 1289.08 550.378 894.54 682.982C824.115 706.658 775.512 739.607 752.671 778.789C732.24 716.639 725.24 647.439 734.503 589.052C743.756 530.674 766.815 473.622 811.725 429.106C865.077 376.235 945.321 344.515 1027.48 321.496C1109.64 298.475 1196 282.731 1275.12 254.774C1354.25 226.816 1427.63 184.529 1463.49 122.437C1510.11 245.456 1547.99 372.714 1533.54 495.807C1519.09 618.909 1444.65 738.431 1309.07 793.363L1309.08 793.364Z" fill="url(#paint0_linear_3011_3302)" fill-opacity="0.24"/>
<path d="M741 1049L725.173 1048.5C725.173 1048.5 692.191 943.53 583.805 932.532C474.064 921.398 283.78 952.693 140.905 888.848C4.75564 828.002 -69.7799 712.107 -84.0019 597.397C-98.2149 482.694 -59.8173 368.061 -12.6408 258C23.255 317.995 96.9207 362.517 176.397 394.243C255.874 425.976 342.649 446.975 425.184 474.368C507.727 501.761 588.324 537.042 641.823 589.838C686.856 634.295 709.902 688.675 719.057 743.254C728.213 797.834 721.012 861.191 700.316 917.026C677.44 879.156 628.668 845.105 557.934 817.983C161.628 666.06 88.0521 516.693 85.3261 510.917C145.111 646.896 254.986 705.7 360.225 759.559C436.823 798.768 496.939 827.243 572.255 867.72C721.667 948.006 741 1048.99 741 1048.99V1049Z" fill="url(#paint1_linear_3011_3302)" fill-opacity="0.24"/>
<defs>
<linearGradient id="paint0_linear_3011_3302" x1="1094.36" y1="105.015" x2="1055.21" y2="934.645" gradientUnits="userSpaceOnUse">
<stop offset="0.508981" stop-color="#9BD34A"/>
<stop offset="1" stop-color="#48BD8E"/>
</linearGradient>
<linearGradient id="paint1_linear_3011_3302" x1="191.853" y1="305.151" x2="276.219" y2="1011.1" gradientUnits="userSpaceOnUse">
<stop offset="0.508981" stop-color="#9BD34A"/>
<stop offset="1" stop-color="#48BD8E"/>
</linearGradient>
</defs>
</svg>
