<svg width="17" height="16" viewBox="0 0 17 16" fill="none" xmlns="http://www.w3.org/2000/svg">
<path d="M0.847175 3.57221C0.583374 4.55387 0.583374 5.90811 0.583374 7.99805C0.583374 10.9666 0.583374 12.4509 1.33935 13.4914C1.5835 13.8274 1.87902 14.1229 2.21506 14.3671C3.25557 15.123 4.73984 15.123 7.70837 15.123H9.29171C12.2602 15.123 13.7445 15.123 14.785 14.3671C15.1211 14.1229 15.4166 13.8274 15.6607 13.4914C16.4167 12.4509 16.4167 10.9666 16.4167 7.99805C16.4167 5.90115 16.4167 4.54485 16.1503 3.56241L14.4856 5.2271C13.1934 6.51933 12.1807 7.53201 11.2843 8.21592C10.3668 8.91594 9.50175 9.32721 8.49993 9.32721C7.49812 9.32721 6.63303 8.91594 5.71555 8.21592C4.81917 7.53201 3.80649 6.51932 2.51428 5.22709L0.966426 3.67923L0.847175 3.57221Z" fill="white"/>
<path d="M1.37504 2.45638L1.46121 2.52768L1.78344 2.81687L3.32185 4.35528C4.65316 5.68659 5.6103 6.64195 6.43586 7.27183C7.24772 7.89125 7.86215 8.13971 8.49993 8.13971C9.13771 8.13971 9.75215 7.89125 10.564 7.27183C11.3896 6.64195 12.3467 5.68659 13.678 4.35528L15.5051 2.52819L15.6045 2.4293C15.3604 2.09326 15.1211 1.87317 14.785 1.62902C13.7445 0.873047 12.2602 0.873047 9.29171 0.873047H7.70837C4.73984 0.873047 3.25557 0.873047 2.21506 1.62902C1.87902 1.87317 1.61919 2.12034 1.37504 2.45638Z" fill="white"/>
</svg>
