<svg width="72" height="36" viewBox="0 0 72 36" fill="none" xmlns="http://www.w3.org/2000/svg">
<path d="M64.2977 16.5628C61.5071 14.1447 58.7434 11.5842 55.7567 9.65504C46.4847 3.68962 36.9185 2.07158 27.2008 5.08541C24.7312 5.84998 22.4311 7.07685 20.5856 9.85952C21.9496 10.4552 23.0373 10.8286 24.0715 11.4064C25.8724 12.4111 27.7535 13.3001 29.3761 14.6781C33.9765 18.5809 34.9215 25.6754 31.7387 31.2052C28.9036 36.1394 23.7951 36.7528 19.4533 32.681C14.5053 28.0403 12.5618 20.928 14.3537 14.0024C14.5499 13.2379 14.7282 12.4555 14.9511 11.5665C9.50379 10.0018 4.84996 12.331 0 13.9758C0.71323 12.8734 1.53344 12.0732 2.46064 11.5042C6.09811 9.26387 10.012 8.35706 14.1933 8.81935C15.5752 8.97049 16.7609 8.89048 17.8486 7.53025C21.7535 2.61389 26.862 0.880275 32.3895 0.47132C45.3079 -0.488838 56.6126 5.12097 66.5087 16.3939C67.0347 16.9896 67.6587 17.4341 68.4255 18.1098C67.8727 7.00572 67.9351 6.50786 70.1818 4.8187C70.3423 5.90332 70.5384 6.85459 70.6276 7.81474C71.0822 12.7844 71.5369 17.7453 71.947 22.715C72.2502 26.4222 71.2784 27.2224 68.3541 25.8177C65.2159 24.3063 62.0777 22.7861 58.9217 21.3725C57.2188 20.6168 55.5962 19.6745 53.6438 20.0479C52.2619 20.3146 50.7195 19.3366 50.6571 16.2339C56.8355 15.3538 62.2917 19.7811 68.3363 20.7502C66.999 19.3455 65.733 17.7897 64.3066 16.5628H64.2977ZM22.5826 31.0185C25.5069 32.9389 28.3865 31.8987 30.134 28.4937C31.9705 24.9375 31.5961 20.3946 29.1533 17.6564C26.443 14.6159 23.1086 13.4068 19.7475 12.4911C19.1859 12.3399 18.1249 13.0067 17.9377 13.6468C17.2067 16.0383 16.7431 18.5632 16.3864 20.1634C17.5544 25.4887 19.3909 28.9204 22.5826 31.0097V31.0185Z" fill="white"/>
</svg>
