<svg width="48" height="33" viewBox="0 0 48 33" fill="none" xmlns="http://www.w3.org/2000/svg">
<path d="M10.8689 32.9551C4.88124 32.9551 8.52365e-07 27.8219 1.89883e-06 21.5198C2.61054e-06 17.2337 2.2291 13.3881 5.75987 11.4229C5.58089 9.42387 4.78362 5.17164 1.51319 4.23988C0.732191 4.01965 0.227796 3.24036 0.325421 2.41024C0.423046 1.58013 1.07388 0.936363 1.88742 0.919422L2.13148 0.919423C3.72602 0.919423 12.4797 1.29213 18.1419 9.20363C21.8192 14.3368 22.9093 19.9104 21.2334 24.8233C19.8341 29.6854 15.6688 32.9551 10.8689 32.9551Z" fill="#304324"/>
<path d="M47.2334 24.8233C45.8341 29.6854 41.6688 32.9551 36.8689 32.9551C30.8812 32.9551 26 27.8219 26 21.5198C26 17.2337 28.2291 13.3881 31.7599 11.4229C31.5809 9.42387 30.7836 5.17164 27.5132 4.23988C26.7322 4.01965 26.2278 3.24036 26.3254 2.41024C26.423 1.58013 27.0739 0.936363 27.8874 0.919422L28.1315 0.919423C29.726 0.919423 38.4797 1.29213 44.1419 9.20363C47.8192 14.3368 48.9093 19.9104 47.2334 24.8233Z" fill="#304324"/>
</svg>
