<svg width="48" height="33" viewBox="0 0 48 33" fill="none" xmlns="http://www.w3.org/2000/svg">
<path d="M37.1311 32.2419C43.1188 32.2419 48 27.1087 48 20.8066C48 16.5205 45.7709 12.6749 42.2401 10.7097C42.4191 8.71067 43.2164 4.45845 46.4868 3.52668C47.2678 3.30645 47.7722 2.52716 47.6746 1.69705C47.577 0.86693 46.9261 0.223168 46.1126 0.206227L45.8685 0.206227C44.274 0.206227 35.5203 0.578934 29.8581 8.49044C26.1808 13.6236 25.0907 19.1972 26.7666 24.1101C28.1659 28.9722 32.3312 32.2419 37.1311 32.2419Z" fill="#304324"/>
<path d="M0.766598 24.1101C2.16589 28.9722 6.33122 32.2419 11.1311 32.2419C17.1188 32.2419 22 27.1087 22 20.8066C22 16.5205 19.7709 12.6749 16.2401 10.7097C16.4191 8.71067 17.2164 4.45845 20.4868 3.52668C21.2678 3.30645 21.7722 2.52716 21.6746 1.69705C21.577 0.86693 20.9261 0.223168 20.1126 0.206227L19.8685 0.206227C18.274 0.206227 9.52029 0.578934 3.85805 8.49044C0.18085 13.6236 -0.909296 19.1972 0.766598 24.1101Z" fill="#304324"/>
</svg>
