<svg width="14" height="12" viewBox="0 0 14 12" fill="none" xmlns="http://www.w3.org/2000/svg">
<g clip-path="url(#clip0_2001_776)">
<path d="M8.29742 10.7127C8.29742 10.7127 8.30035 10.71 8.30182 10.7086L12.8526 6.51342C12.8885 6.48008 12.9204 6.44325 12.9478 6.40359L13.0192 6.28279L13.0489 6.20042L13.0489 6.14001C13.0674 6.04745 13.0674 5.95255 13.0489 5.85996L13.0489 5.80506L13.0489 5.73916L12.9954 5.64581C12.9648 5.59379 12.9268 5.54576 12.8824 5.50303L8.30182 1.29134C7.99872 1.0093 7.5053 1.00748 7.19976 1.28727C7.19976 1.28727 7.19684 1.28997 7.19536 1.29134C6.90151 1.57563 6.90151 2.02288 7.19536 2.30721L9.90798 4.81665C10.023 4.92491 10.0211 5.09876 9.90383 5.20491C9.84926 5.25431 9.7762 5.28241 9.69977 5.28339L0.842101 5.28339C0.4117 5.28336 0.0627794 5.6054 0.0627515 6.00269C0.0627236 6.39998 0.411589 6.72204 0.84199 6.72209L9.69977 6.72209C9.86401 6.72423 9.99532 6.84886 9.993 7.00046C9.99192 7.07099 9.96149 7.13846 9.90798 7.18883L7.19536 9.68731C6.89772 9.97232 6.89772 10.4236 7.19536 10.7087C7.49846 10.9907 7.99189 10.9925 8.29742 10.7127Z" fill="white"/>
</g>
<defs>
<clipPath id="clip0_2001_776">
<rect width="12" height="13" fill="white" transform="translate(13.063) rotate(90)"/>
</clipPath>
</defs>
</svg>
